<svg width="438" height="250" viewBox="0 0 438 250" fill="none" xmlns="http://www.w3.org/2000/svg">
<g clip-path="url(#clip0_371_447)">
<rect width="438" height="250" rx="50" fill="black"/>
<g clip-path="url(#clip1_371_447)">
<circle cx="20.5913" cy="65.8398" r="0.560502" fill="#FCFFCC"/>
<circle cx="173.248" cy="153.557" r="0.893856" fill="#FCFFCC"/>
<circle cx="318.313" cy="210.697" r="0.902167" fill="#FCFFCC"/>
<circle cx="40.2251" cy="159.73" r="0.515637" fill="#FCFFCC"/>
<circle cx="261.852" cy="144.291" r="0.697141" fill="#FCFFCC"/>
<circle cx="341.507" cy="121.823" r="0.617731" fill="#FCFFCC"/>
<circle cx="197.707" cy="236.43" r="0.505673" fill="#FCFFCC"/>
<circle cx="240.393" cy="193.533" r="0.818052" fill="#FCFFCC"/>
<circle cx="345.554" cy="32.916" r="0.95511" fill="#FCFFCC"/>
<circle cx="18.1652" cy="249.526" r="0.597362" fill="#FCFFCC"/>
<circle cx="223.521" cy="130.284" r="0.637796" fill="#FCFFCC"/>
<circle cx="73.3852" cy="43.4882" r="0.932536" fill="#FCFFCC"/>
<circle cx="260.932" cy="153.248" r="0.785691" fill="#FCFFCC"/>
<circle cx="435.43" cy="153.882" r="0.564628" fill="#FCFFCC"/>
<circle cx="282.808" cy="192.228" r="0.777112" fill="#FCFFCC"/>
<circle cx="306.342" cy="180.642" r="0.921591" fill="#FCFFCC"/>
<circle cx="386.773" cy="209.449" r="0.692952" fill="#FCFFCC"/>
<circle cx="56.8031" cy="136.906" r="0.712813" fill="#FCFFCC"/>
<circle cx="59.9206" cy="5.54271" r="0.507552" fill="#FCFFCC"/>
<circle cx="75.272" cy="118.093" r="0.908252" fill="#FCFFCC"/>
<circle cx="218.314" cy="125.423" r="0.847599" fill="#FCFFCC"/>
<circle cx="90.5391" cy="20.0611" r="0.770087" fill="#FCFFCC"/>
<circle cx="210.442" cy="196.495" r="0.807056" fill="#FCFFCC"/>
<circle cx="322.454" cy="30.1628" r="0.801967" fill="#FCFFCC"/>
<circle cx="154.685" cy="18.2503" r="0.588641" fill="#FCFFCC"/>
<circle cx="292.439" cy="81.1715" r="0.876091" fill="#FCFFCC"/>
<circle cx="142.386" cy="194.246" r="0.75776" fill="#FCFFCC"/>
<circle cx="244.474" cy="92.0461" r="0.646153" fill="#FCFFCC"/>
<circle cx="2.68535" cy="107.897" r="0.955368" fill="#FCFFCC"/>
<circle cx="421.524" cy="166.261" r="0.765836" fill="#FCFFCC"/>
<circle cx="157.934" cy="82.3962" r="0.66864" fill="#FCFFCC"/>
<circle cx="90.7286" cy="197.537" r="0.959516" fill="#FCFFCC"/>
<circle cx="236.556" cy="242.966" r="0.521262" fill="#FCFFCC"/>
<circle cx="292.237" cy="50.6753" r="0.637189" fill="#FCFFCC"/>
<circle cx="134.444" cy="20.8167" r="0.51108" fill="#FCFFCC"/>
<circle cx="145.895" cy="116.324" r="0.822334" fill="#FCFFCC"/>
<circle cx="288.334" cy="180.662" r="0.977852" fill="#FCFFCC"/>
<circle cx="143.475" cy="146.724" r="0.524417" fill="#FCFFCC"/>
<circle cx="120.714" cy="60.5065" r="0.628055" fill="#FCFFCC"/>
<circle cx="296.101" cy="45.9046" r="0.739566" fill="#FCFFCC"/>
<circle cx="278.397" cy="147.211" r="0.933215" fill="#FCFFCC"/>
<circle cx="139.535" cy="45.2727" r="0.858156" fill="#FCFFCC"/>
<circle cx="318.89" cy="98.1453" r="0.667283" fill="#FCFFCC"/>
<circle cx="9.43033" cy="79.3244" r="0.820462" fill="#FCFFCC"/>
<circle cx="139.446" cy="12.4335" r="0.733813" fill="#FCFFCC"/>
<circle cx="427.282" cy="90.8016" r="0.750851" fill="#FCFFCC"/>
<circle cx="343.808" cy="111.707" r="0.896074" fill="#FCFFCC"/>
<circle cx="430.677" cy="199.826" r="0.809394" fill="#FCFFCC"/>
<circle cx="368.382" cy="79.546" r="0.716903" fill="#FCFFCC"/>
<circle cx="185.014" cy="86.6336" r="0.773743" fill="#FCFFCC"/>
<circle cx="172.247" cy="36.634" r="0.802928" fill="#FCFFCC"/>
<circle cx="156.692" cy="181.688" r="0.750493" fill="#FCFFCC"/>
<circle cx="150.327" cy="249.615" r="0.570154" fill="#FCFFCC"/>
<circle cx="20.0014" cy="128.303" r="0.545784" fill="#FCFFCC"/>
<circle cx="137.73" cy="188.431" r="0.990684" fill="#FCFFCC"/>
<circle cx="76.4899" cy="208.897" r="0.643243" fill="#FCFFCC"/>
<circle cx="132.549" cy="231.602" r="0.677963" fill="#FCFFCC"/>
<circle cx="195.867" cy="249.965" r="0.63033" fill="#FCFFCC"/>
<circle cx="148.533" cy="69.6368" r="0.560601" fill="#FCFFCC"/>
<circle cx="154.042" cy="229.978" r="0.974925" fill="#FCFFCC"/>
<circle cx="344.363" cy="45.5211" r="0.558682" fill="#FCFFCC"/>
<circle cx="278.431" cy="52.0995" r="0.861177" fill="#FCFFCC"/>
<circle cx="186.245" cy="249.202" r="0.596267" fill="#FCFFCC"/>
<circle cx="85.0571" cy="223.117" r="0.854494" fill="#FCFFCC"/>
<circle cx="74.0008" cy="134.795" r="0.570605" fill="#FCFFCC"/>
<circle cx="438.743" cy="158.369" r="0.85143" fill="#FCFFCC"/>
<circle cx="245.008" cy="231.164" r="0.55362" fill="#FCFFCC"/>
<circle cx="319.378" cy="210.528" r="0.549638" fill="#FCFFCC"/>
<circle cx="409.347" cy="2.50867" r="0.661505" fill="#FCFFCC"/>
<circle cx="231.916" cy="207.746" r="0.702764" fill="#FCFFCC"/>
<circle cx="8.15023" cy="43.9959" r="0.972498" fill="#FCFFCC"/>
<circle cx="431.823" cy="57.0593" r="0.870368" fill="#FCFFCC"/>
<circle cx="184.066" cy="108.525" r="0.638327" fill="#FCFFCC"/>
<circle cx="395.137" cy="31.264" r="0.779633" fill="#FCFFCC"/>
<circle cx="79.4091" cy="121.518" r="0.770937" fill="#FCFFCC"/>
<circle cx="122.829" cy="196.232" r="0.717852" fill="#FCFFCC"/>
<circle cx="157.745" cy="136.13" r="0.511186" fill="#FCFFCC"/>
<circle cx="162.009" cy="202.739" r="0.640889" fill="#FCFFCC"/>
<circle cx="141.566" cy="1.27943" r="0.525523" fill="#FCFFCC"/>
<circle cx="210.948" cy="206.955" r="0.761663" fill="#FCFFCC"/>
<circle cx="128.32" cy="222.444" r="0.872737" fill="#FCFFCC"/>
<circle cx="33.4256" cy="210.526" r="0.863626" fill="#FCFFCC"/>
<circle cx="390.368" cy="83.7427" r="0.681671" fill="#FCFFCC"/>
<circle cx="219.74" cy="173.468" r="0.982634" fill="#FCFFCC"/>
<circle cx="221.606" cy="232.922" r="0.542031" fill="#FCFFCC"/>
<circle cx="389.887" cy="203.836" r="0.918279" fill="#FCFFCC"/>
<circle cx="23.2637" cy="187.208" r="0.599146" fill="#FCFFCC"/>
<circle cx="401.774" cy="178.351" r="0.758833" fill="#FCFFCC"/>
<circle cx="165.022" cy="225.328" r="0.526585" fill="#FCFFCC"/>
<circle cx="405.932" cy="212.63" r="0.669719" fill="#FCFFCC"/>
<circle cx="267.461" cy="224.048" r="0.683748" fill="#FCFFCC"/>
<circle cx="339.781" cy="240.822" r="0.825571" fill="#FCFFCC"/>
<circle cx="400.028" cy="184.84" r="0.909381" fill="#FCFFCC"/>
<circle cx="140.936" cy="194.745" r="0.840289" fill="#FCFFCC"/>
<circle cx="180.871" cy="10.0474" r="0.502021" fill="#FCFFCC"/>
<circle cx="196.585" cy="151.419" r="0.763716" fill="#FCFFCC"/>
<circle cx="239.281" cy="84.9008" r="0.833894" fill="#FCFFCC"/>
<circle cx="272.595" cy="58.6827" r="0.822877" fill="#FCFFCC"/>
<circle cx="81.9978" cy="41.6965" r="0.535413" fill="#FCFFCC"/>
<circle cx="102.331" cy="157.866" r="0.664564" fill="#FCFFCC"/>
<circle cx="383.386" cy="238.995" r="0.631649" fill="#FCFFCC"/>
<circle cx="128.973" cy="106.896" r="0.932613" fill="#FCFFCC"/>
<circle cx="71.8122" cy="11.4221" r="0.997735" fill="#FCFFCC"/>
<circle cx="100.38" cy="76.8319" r="0.924649" fill="#FCFFCC"/>
<circle cx="427.294" cy="185.759" r="0.654136" fill="#FCFFCC"/>
<circle cx="240.536" cy="13.5905" r="0.959122" fill="#FCFFCC"/>
<circle cx="19.1894" cy="34.5268" r="0.77732" fill="#FCFFCC"/>
<circle cx="11.272" cy="237.37" r="0.903788" fill="#FCFFCC"/>
<circle cx="51.4924" cy="75.4406" r="0.587576" fill="#FCFFCC"/>
<circle cx="209.242" cy="181.728" r="0.542213" fill="#FCFFCC"/>
<circle cx="371.792" cy="35.4647" r="0.895806" fill="#FCFFCC"/>
<circle cx="366.218" cy="43.697" r="0.714082" fill="#FCFFCC"/>
<circle cx="350.124" cy="240.487" r="0.765291" fill="#FCFFCC"/>
<circle cx="115.531" cy="45.2315" r="0.917574" fill="#FCFFCC"/>
<circle cx="332.68" cy="176.142" r="0.877686" fill="#FCFFCC"/>
<circle cx="255.145" cy="100.6" r="0.796702" fill="#FCFFCC"/>
<circle cx="364.483" cy="101.331" r="0.595036" fill="#FCFFCC"/>
<circle cx="215.698" cy="59.9026" r="0.533966" fill="#FCFFCC"/>
<circle cx="248.387" cy="134.551" r="0.598221" fill="#FCFFCC"/>
<circle cx="300.711" cy="181.447" r="0.74945" fill="#FCFFCC"/>
<circle cx="329.29" cy="40.1077" r="0.987078" fill="#FCFFCC"/>
<circle cx="373.685" cy="32.3797" r="0.998808" fill="#FCFFCC"/>
<circle cx="99.9547" cy="122.894" r="0.548484" fill="#FCFFCC"/>
<circle cx="416.808" cy="171.05" r="0.637069" fill="#FCFFCC"/>
<circle cx="165.492" cy="100.592" r="0.79477" fill="#FCFFCC"/>
<circle cx="181.577" cy="208.152" r="0.548504" fill="#FCFFCC"/>
<circle cx="67.2376" cy="168.659" r="0.749802" fill="#FCFFCC"/>
<circle cx="59.0863" cy="12.3358" r="0.961773" fill="#FCFFCC"/>
<circle cx="41.9305" cy="97.8676" r="0.828494" fill="#FCFFCC"/>
<circle cx="102.057" cy="76.816" r="0.500544" fill="#FCFFCC"/>
<circle cx="211.252" cy="112.913" r="0.957664" fill="#FCFFCC"/>
<circle cx="208.187" cy="192.043" r="0.60928" fill="#FCFFCC"/>
<circle cx="60.1871" cy="250.272" r="0.511773" fill="#FCFFCC"/>
<circle cx="422.954" cy="75.771" r="0.910142" fill="#FCFFCC"/>
<circle cx="435.424" cy="160.835" r="0.803072" fill="#FCFFCC"/>
<circle cx="366.724" cy="127.53" r="0.62107" fill="#FCFFCC"/>
<circle cx="299.967" cy="197.899" r="0.800129" fill="#FCFFCC"/>
<circle cx="220.82" cy="86.5477" r="0.671725" fill="#FCFFCC"/>
<circle cx="427.12" cy="15.5058" r="0.838768" fill="#FCFFCC"/>
<circle cx="297.684" cy="5.71556" r="0.938212" fill="#FCFFCC"/>
<circle cx="22.446" cy="103.287" r="0.594906" fill="#FCFFCC"/>
<circle cx="303.108" cy="142.889" r="0.875425" fill="#FCFFCC"/>
<circle cx="182.288" cy="127.957" r="0.91468" fill="#FCFFCC"/>
<circle cx="265.47" cy="197.051" r="0.585742" fill="#FCFFCC"/>
<circle cx="75.5826" cy="67.9943" r="0.580205" fill="#FCFFCC"/>
<circle cx="407.705" cy="210.204" r="0.605143" fill="#FCFFCC"/>
<circle cx="220.498" cy="196.292" r="0.673284" fill="#FCFFCC"/>
<circle cx="80.655" cy="134.572" r="0.652599" fill="#FCFFCC"/>
<circle cx="361.948" cy="28.9604" r="0.558105" fill="#FCFFCC"/>
<circle cx="112.407" cy="141.839" r="0.768669" fill="#FCFFCC"/>
<circle cx="336.414" cy="81.8595" r="0.967425" fill="#FCFFCC"/>
<circle cx="170.906" cy="48.1611" r="0.811006" fill="#FCFFCC"/>
<circle cx="186.977" cy="76.0801" r="0.941438" fill="#FCFFCC"/>
<circle cx="352.089" cy="115.248" r="0.613099" fill="#FCFFCC"/>
<circle cx="156.88" cy="7.64912" r="0.885452" fill="#FCFFCC"/>
<circle cx="334.459" cy="178.804" r="0.638379" fill="#FCFFCC"/>
<circle cx="434.049" cy="123.755" r="0.840001" fill="#FCFFCC"/>
<circle cx="10.4612" cy="100.458" r="0.753215" fill="#FCFFCC"/>
<circle cx="113.791" cy="187.161" r="0.611333" fill="#FCFFCC"/>
<circle cx="82.5702" cy="52.6498" r="0.589262" fill="#FCFFCC"/>
<circle cx="149.104" cy="72.0395" r="0.990161" fill="#FCFFCC"/>
<circle cx="331.429" cy="186.631" r="0.524426" fill="#FCFFCC"/>
<circle cx="184.39" cy="118.051" r="0.595245" fill="#FCFFCC"/>
<circle cx="345.626" cy="151.817" r="0.97093" fill="#FCFFCC"/>
<circle cx="246.652" cy="50.3701" r="0.542938" fill="#FCFFCC"/>
<circle cx="183.695" cy="84.8897" r="0.70661" fill="#FCFFCC"/>
<circle cx="304.026" cy="40.9491" r="0.544278" fill="#FCFFCC"/>
<circle cx="214.055" cy="12.7415" r="0.661893" fill="#FCFFCC"/>
<circle cx="337.97" cy="117.975" r="0.788066" fill="#FCFFCC"/>
<circle cx="188.976" cy="167.855" r="0.933154" fill="#FCFFCC"/>
<circle cx="231.293" cy="182.964" r="0.502104" fill="#FCFFCC"/>
<circle cx="190.842" cy="47.2639" r="0.522711" fill="#FCFFCC"/>
<circle cx="243.364" cy="57.5621" r="0.988363" fill="#FCFFCC"/>
<circle cx="50.4321" cy="199.524" r="0.838364" fill="#FCFFCC"/>
<circle cx="154.566" cy="164.749" r="0.768536" fill="#FCFFCC"/>
<circle cx="48.3151" cy="53.7277" r="0.825382" fill="#FCFFCC"/>
<circle cx="64.3755" cy="245.327" r="0.624978" fill="#FCFFCC"/>
<circle cx="375.958" cy="157.285" r="0.742436" fill="#FCFFCC"/>
<circle cx="400.857" cy="242.184" r="0.917363" fill="#FCFFCC"/>
<circle cx="182.809" cy="41.8114" r="0.765989" fill="#FCFFCC"/>
<circle cx="51.6879" cy="41.0024" r="0.821726" fill="#FCFFCC"/>
<circle cx="335.124" cy="148.799" r="0.621009" fill="#FCFFCC"/>
<circle cx="128.725" cy="243.249" r="0.843791" fill="#FCFFCC"/>
<circle cx="10.5079" cy="232.801" r="0.650942" fill="#FCFFCC"/>
<circle cx="177.674" cy="20.7815" r="0.706262" fill="#FCFFCC"/>
<circle cx="345.694" cy="160.755" r="0.75104" fill="#FCFFCC"/>
<circle cx="170.228" cy="230.893" r="0.644272" fill="#FCFFCC"/>
<circle cx="223.333" cy="236.933" r="0.706812" fill="#FCFFCC"/>
<circle cx="263.611" cy="85.3038" r="0.536684" fill="#FCFFCC"/>
<circle cx="364.802" cy="218.405" r="0.992744" fill="#FCFFCC"/>
<circle cx="175.812" cy="57.9356" r="0.651386" fill="#FCFFCC"/>
<circle cx="55.8973" cy="92.1155" r="0.953417" fill="#FCFFCC"/>
<circle cx="333.537" cy="203.042" r="0.792728" fill="#FCFFCC"/>
<circle cx="223.362" cy="76.2976" r="0.92353" fill="#FCFFCC"/>
<circle cx="58.8161" cy="82.7087" r="0.97086" fill="#FCFFCC"/>
<circle cx="333.131" cy="75.0622" r="0.996304" fill="#FCFFCC"/>
<circle cx="386.227" cy="158.585" r="0.65433" fill="#FCFFCC"/>
<circle cx="386.278" cy="139.135" r="0.543044" fill="#FCFFCC"/>
<circle cx="268.285" cy="206.638" r="0.973001" fill="#FCFFCC"/>
<circle cx="15.1779" cy="173.315" r="0.610035" fill="#FCFFCC"/>
<circle cx="415.877" cy="99.7157" r="0.877812" fill="#FCFFCC"/>
<circle cx="317.283" cy="22.7218" r="0.862915" fill="#FCFFCC"/>
<circle cx="245.23" cy="87.1689" r="0.716746" fill="#FCFFCC"/>
<circle cx="366.128" cy="175.118" r="0.941961" fill="#FCFFCC"/>
<circle cx="177.066" cy="92.6854" r="0.851399" fill="#FCFFCC"/>
<circle cx="259.076" cy="119.137" r="0.755471" fill="#FCFFCC"/>
<circle cx="72.6228" cy="221.453" r="0.519773" fill="#FCFFCC"/>
<circle cx="339.516" cy="173.951" r="0.625132" fill="#FCFFCC"/>
<circle cx="161.057" cy="56.5519" r="0.509922" fill="#FCFFCC"/>
<circle cx="392.167" cy="57.0647" r="0.731179" fill="#FCFFCC"/>
<circle cx="0.926274" cy="155.472" r="0.503911" fill="#FCFFCC"/>
<circle cx="9.89167" cy="73.1177" r="0.983469" fill="#FCFFCC"/>
<circle cx="272.331" cy="215.422" r="0.913249" fill="#FCFFCC"/>
<circle cx="315.37" cy="77.4736" r="0.955575" fill="#FCFFCC"/>
<circle cx="124.732" cy="52.9947" r="0.520568" fill="#FCFFCC"/>
<circle cx="78.0178" cy="231.651" r="0.615923" fill="#FCFFCC"/>
<circle cx="55.9729" cy="174.131" r="0.524155" fill="#FCFFCC"/>
<circle cx="418.395" cy="74.6091" r="0.700888" fill="#FCFFCC"/>
<circle cx="427.235" cy="124.355" r="0.542173" fill="#FCFFCC"/>
<circle cx="324.625" cy="189.144" r="0.833737" fill="#FCFFCC"/>
<circle cx="254.167" cy="197.097" r="0.525258" fill="#FCFFCC"/>
<circle cx="381.643" cy="166.112" r="0.809914" fill="#FCFFCC"/>
<circle cx="58.7383" cy="81.0625" r="0.718273" fill="#FCFFCC"/>
<circle cx="181.153" cy="202.02" r="0.969422" fill="#FCFFCC"/>
<circle cx="130.948" cy="44.6976" r="0.628794" fill="#FCFFCC"/>
<circle cx="204.684" cy="179.382" r="0.673676" fill="#FCFFCC"/>
<circle cx="66.3052" cy="49.2583" r="0.643097" fill="#FCFFCC"/>
<circle cx="73.6394" cy="57.864" r="0.900147" fill="#FCFFCC"/>
<circle cx="355.089" cy="52.664" r="0.850512" fill="#FCFFCC"/>
<circle cx="227.287" cy="122.803" r="0.784028" fill="#FCFFCC"/>
<circle cx="208.813" cy="120.061" r="0.695333" fill="#FCFFCC"/>
<circle cx="300.121" cy="86.1621" r="0.60254" fill="#FCFFCC"/>
<circle cx="228.788" cy="249.622" r="0.724367" fill="#FCFFCC"/>
<circle cx="248.108" cy="48.2912" r="0.934304" fill="#FCFFCC"/>
<circle cx="86.4829" cy="76.7397" r="0.534145" fill="#FCFFCC"/>
<circle cx="85.9993" cy="49.7264" r="0.558871" fill="#FCFFCC"/>
<circle cx="106.258" cy="101.865" r="0.863482" fill="#FCFFCC"/>
<circle cx="354.847" cy="200.346" r="0.904387" fill="#FCFFCC"/>
<circle cx="295.742" cy="155.611" r="0.811882" fill="#FCFFCC"/>
<circle cx="82.0766" cy="235.002" r="0.531157" fill="#FCFFCC"/>
<circle cx="305.467" cy="202.809" r="0.687414" fill="#FCFFCC"/>
<circle cx="112.001" cy="191.793" r="0.847232" fill="#FCFFCC"/>
<circle cx="347.368" cy="57.7551" r="0.906982" fill="#FCFFCC"/>
<circle cx="307.593" cy="118.371" r="0.899353" fill="#FCFFCC"/>
<circle cx="160.953" cy="156.706" r="0.601052" fill="#FCFFCC"/>
<circle cx="425.074" cy="243.154" r="0.976596" fill="#FCFFCC"/>
<circle cx="114.799" cy="195.38" r="0.932056" fill="#FCFFCC"/>
<circle cx="401.119" cy="108.529" r="0.571234" fill="#FCFFCC"/>
<circle cx="114.917" cy="104.066" r="0.889133" fill="#FCFFCC"/>
<circle cx="34.6063" cy="34.8724" r="0.911921" fill="#FCFFCC"/>
<circle cx="174.043" cy="63.5692" r="0.805566" fill="#FCFFCC"/>
<circle cx="257.404" cy="195.011" r="0.739249" fill="#FCFFCC"/>
<circle cx="200.91" cy="117.693" r="0.976074" fill="#FCFFCC"/>
<circle cx="431.944" cy="247.243" r="0.67983" fill="#FCFFCC"/>
<circle cx="418.629" cy="39.0841" r="0.667617" fill="#FCFFCC"/>
<circle cx="78.6895" cy="193.347" r="0.535734" fill="#FCFFCC"/>
<circle cx="322.929" cy="231.659" r="0.717819" fill="#FCFFCC"/>
<circle cx="234.716" cy="21.1277" r="0.759535" fill="#FCFFCC"/>
<circle cx="88.5241" cy="38.0407" r="0.992866" fill="#FCFFCC"/>
<circle cx="192.877" cy="171.38" r="0.782568" fill="#FCFFCC"/>
<circle cx="385.755" cy="141.284" r="0.993088" fill="#FCFFCC"/>
<circle cx="343.33" cy="120.834" r="0.98683" fill="#FCFFCC"/>
<circle cx="269.368" cy="246.355" r="0.772724" fill="#FCFFCC"/>
<circle cx="426.769" cy="181.324" r="0.885098" fill="#FCFFCC"/>
<circle cx="248.771" cy="195.929" r="0.77567" fill="#FCFFCC"/>
<circle cx="258.045" cy="45.1916" r="0.585651" fill="#FCFFCC"/>
<circle cx="41.9309" cy="218.246" r="0.891815" fill="#FCFFCC"/>
<circle cx="149.5" cy="4.55921" r="0.583131" fill="#FCFFCC"/>
<circle cx="420.947" cy="221.763" r="0.649854" fill="#FCFFCC"/>
<circle cx="392.934" cy="140.629" r="0.702977" fill="#FCFFCC"/>
<circle cx="107.304" cy="144.818" r="0.677027" fill="#FCFFCC"/>
<circle cx="239.849" cy="141.759" r="0.509994" fill="#FCFFCC"/>
<circle cx="114.941" cy="22.897" r="0.801269" fill="#FCFFCC"/>
<circle cx="157.122" cy="106.89" r="0.816384" fill="#FCFFCC"/>
<circle cx="84.4721" cy="2.16201" r="0.993065" fill="#FCFFCC"/>
</g>
<g clip-path="url(#clip2_371_447)">
<g filter="url(#filter0_f_371_447)">
<ellipse cx="370.204" cy="-101.323" rx="197.1" ry="59.13" transform="rotate(-57.2426 370.204 -101.323)" fill="#0000FF" fill-opacity="0.25"/>
</g>
<g filter="url(#filter1_f_371_447)">
<ellipse cx="418.998" cy="12.2641" rx="197.1" ry="59.13" transform="rotate(-83.9749 418.998 12.2641)" fill="#0000FF" fill-opacity="0.25"/>
</g>
<g filter="url(#filter2_f_371_447)">
<path d="M-167.192 -108.621C-140.237 -127.056 -68.57 -69.1603 -7.12056 20.692C54.3289 110.544 82.2916 198.328 55.3359 216.763C28.3802 235.198 -43.2863 177.303 -104.736 87.4505C-166.185 -2.40183 -194.148 -90.1859 -167.192 -108.621Z" fill="#0000FF" fill-opacity="0.25"/>
</g>
<g filter="url(#filter3_f_371_447)">
<ellipse cx="-94.4091" cy="173.59" rx="197.1" ry="59.13" transform="rotate(131.244 -94.4091 173.59)" fill="#0000FF" fill-opacity="0.25"/>
</g>
<g filter="url(#filter4_f_371_447)">
<ellipse cx="121.157" cy="337.122" rx="197.1" ry="59.13" transform="rotate(93.2347 121.157 337.122)" fill="#0000FF" fill-opacity="0.25"/>
</g>
<g filter="url(#filter5_f_371_447)">
<ellipse cx="255.87" cy="300.558" rx="197.1" ry="59.13" transform="rotate(-0.0725011 255.87 300.558)" fill="#0000FF" fill-opacity="0.25"/>
</g>
<g filter="url(#filter6_f_371_447)">
<ellipse cx="-113.353" cy="215.274" rx="197.1" ry="59.13" transform="rotate(177.322 -113.353 215.274)" fill="#0000FF" fill-opacity="0.1"/>
</g>
<g filter="url(#filter7_f_371_447)">
<ellipse cx="243.647" cy="146.274" rx="197.1" ry="59.13" transform="rotate(177.322 243.647 146.274)" fill="#0000FF" fill-opacity="0.2"/>
</g>
</g>
</g>
<defs>
<filter id="filter0_f_371_447" x="102.506" y="-420.169" width="535.397" height="637.692" filterUnits="userSpaceOnUse" color-interpolation-filters="sRGB">
<feFlood flood-opacity="0" result="BackgroundImageFix"/>
<feBlend mode="normal" in="SourceGraphic" in2="BackgroundImageFix" result="shape"/>
<feGaussianBlur stdDeviation="75" result="effect1_foregroundBlur_371_447"/>
</filter>
<filter id="filter1_f_371_447" x="206.645" y="-333.847" width="424.707" height="692.223" filterUnits="userSpaceOnUse" color-interpolation-filters="sRGB">
<feFlood flood-opacity="0" result="BackgroundImageFix"/>
<feBlend mode="normal" in="SourceGraphic" in2="BackgroundImageFix" result="shape"/>
<feGaussianBlur stdDeviation="75" result="effect1_foregroundBlur_371_447"/>
</filter>
<filter id="filter2_f_371_447" x="-327.458" y="-262.042" width="543.059" height="632.228" filterUnits="userSpaceOnUse" color-interpolation-filters="sRGB">
<feFlood flood-opacity="0" result="BackgroundImageFix"/>
<feBlend mode="normal" in="SourceGraphic" in2="BackgroundImageFix" result="shape"/>
<feGaussianBlur stdDeviation="75" result="effect1_foregroundBlur_371_447"/>
</filter>
<filter id="filter3_f_371_447" x="-381.783" y="-129.69" width="574.748" height="606.562" filterUnits="userSpaceOnUse" color-interpolation-filters="sRGB">
<feFlood flood-opacity="0" result="BackgroundImageFix"/>
<feBlend mode="normal" in="SourceGraphic" in2="BackgroundImageFix" result="shape"/>
<feGaussianBlur stdDeviation="75" result="effect1_foregroundBlur_371_447"/>
</filter>
<filter id="filter4_f_371_447" x="-88.9277" y="-9.69238" width="420.17" height="693.63" filterUnits="userSpaceOnUse" color-interpolation-filters="sRGB">
<feFlood flood-opacity="0" result="BackgroundImageFix"/>
<feBlend mode="normal" in="SourceGraphic" in2="BackgroundImageFix" result="shape"/>
<feGaussianBlur stdDeviation="75" result="effect1_foregroundBlur_371_447"/>
</filter>
<filter id="filter5_f_371_447" x="-91.2305" y="91.4272" width="694.2" height="418.261" filterUnits="userSpaceOnUse" color-interpolation-filters="sRGB">
<feFlood flood-opacity="0" result="BackgroundImageFix"/>
<feBlend mode="normal" in="SourceGraphic" in2="BackgroundImageFix" result="shape"/>
<feGaussianBlur stdDeviation="75" result="effect1_foregroundBlur_371_447"/>
</filter>
<filter id="filter6_f_371_447" x="-460.257" y="5.48682" width="693.81" height="419.575" filterUnits="userSpaceOnUse" color-interpolation-filters="sRGB">
<feFlood flood-opacity="0" result="BackgroundImageFix"/>
<feBlend mode="normal" in="SourceGraphic" in2="BackgroundImageFix" result="shape"/>
<feGaussianBlur stdDeviation="75" result="effect1_foregroundBlur_371_447"/>
</filter>
<filter id="filter7_f_371_447" x="-103.257" y="-63.5132" width="693.81" height="419.575" filterUnits="userSpaceOnUse" color-interpolation-filters="sRGB">
<feFlood flood-opacity="0" result="BackgroundImageFix"/>
<feBlend mode="normal" in="SourceGraphic" in2="BackgroundImageFix" result="shape"/>
<feGaussianBlur stdDeviation="75" result="effect1_foregroundBlur_371_447"/>
</filter>
<clipPath id="clip0_371_447">
<rect width="438" height="250" rx="50" fill="white"/>
</clipPath>
<clipPath id="clip1_371_447">
<rect width="438" height="250" fill="white"/>
</clipPath>
<clipPath id="clip2_371_447">
<rect width="438" height="250" fill="white"/>
</clipPath>
</defs>
</svg>
