<svg width="438" height="250" viewBox="0 0 438 250" fill="none" xmlns="http://www.w3.org/2000/svg">
<g clip-path="url(#clip0_368_18)">
<rect width="438" height="250" fill="black"/>
<g clip-path="url(#clip1_368_18)">
<circle cx="201.335" cy="122.498" r="0.503221" fill="#FDFFA3"/>
<circle cx="343.015" cy="38.5639" r="0.741902" fill="#FDFFA3"/>
<circle cx="92.4563" cy="111.842" r="0.611106" fill="#FDFFA3"/>
<circle cx="315.251" cy="150.557" r="0.631945" fill="#FDFFA3"/>
<circle cx="29.5909" cy="246.888" r="0.696344" fill="#FDFFA3"/>
<circle cx="281.656" cy="183.74" r="0.681138" fill="#FDFFA3"/>
<circle cx="343.342" cy="128.534" r="0.833284" fill="#FDFFA3"/>
<circle cx="255.103" cy="51.5505" r="0.536849" fill="#FDFFA3"/>
<circle cx="109.4" cy="50.8318" r="0.843015" fill="#FDFFA3"/>
<circle cx="98.5209" cy="209.681" r="0.959833" fill="#FDFFA3"/>
<circle cx="308.471" cy="58.9498" r="0.954188" fill="#FDFFA3"/>
<circle cx="425.018" cy="75.4824" r="0.812704" fill="#FDFFA3"/>
<circle cx="13.6208" cy="201.585" r="0.727703" fill="#FDFFA3"/>
<circle cx="66.1435" cy="70.5613" r="0.60496" fill="#FDFFA3"/>
<circle cx="63.6848" cy="109.21" r="0.765881" fill="#FDFFA3"/>
<circle cx="270.032" cy="95.7293" r="0.921153" fill="#FDFFA3"/>
<circle cx="222.43" cy="41.3432" r="0.840745" fill="#FDFFA3"/>
<circle cx="387.058" cy="64.8093" r="0.762631" fill="#FDFFA3"/>
<circle cx="135.054" cy="133.327" r="0.653953" fill="#FDFFA3"/>
<circle cx="239.92" cy="217.559" r="0.597586" fill="#FDFFA3"/>
<circle cx="202.753" cy="64.6516" r="0.751424" fill="#FDFFA3"/>
<circle cx="298.124" cy="117.396" r="0.960687" fill="#FDFFA3"/>
<circle cx="268.255" cy="195.455" r="0.816426" fill="#FDFFA3"/>
<circle cx="331.3" cy="196.055" r="0.611709" fill="#FDFFA3"/>
<circle cx="289.657" cy="140.691" r="0.634217" fill="#FDFFA3"/>
<circle cx="167.413" cy="85.7567" r="0.720842" fill="#FDFFA3"/>
<circle cx="394.488" cy="9.37189" r="0.921205" fill="#FDFFA3"/>
<circle cx="371.409" cy="206.756" r="0.863882" fill="#FDFFA3"/>
<circle cx="364.465" cy="31.1997" r="0.595012" fill="#FDFFA3"/>
<circle cx="96.9832" cy="4.57553" r="0.723478" fill="#FDFFA3"/>
<circle cx="187.607" cy="250.296" r="0.648527" fill="#FDFFA3"/>
<circle cx="73.22" cy="245.153" r="0.625324" fill="#FDFFA3"/>
<circle cx="137.97" cy="222.228" r="0.583993" fill="#FDFFA3"/>
<circle cx="418.628" cy="83.1222" r="0.551692" fill="#FDFFA3"/>
<circle cx="52.9839" cy="76.4602" r="0.611853" fill="#FDFFA3"/>
<circle cx="292.076" cy="82.8766" r="0.801671" fill="#FDFFA3"/>
<circle cx="8.52934" cy="112.947" r="0.520059" fill="#FDFFA3"/>
<circle cx="182.725" cy="51.8816" r="0.705573" fill="#FDFFA3"/>
<circle cx="35.5045" cy="7.58462" r="0.840479" fill="#FDFFA3"/>
<circle cx="246.919" cy="35.912" r="0.610714" fill="#FDFFA3"/>
<circle cx="119.915" cy="90.2166" r="0.932656" fill="#FDFFA3"/>
<circle cx="403.759" cy="63.7901" r="0.796426" fill="#FDFFA3"/>
<circle cx="147.418" cy="12.551" r="0.565416" fill="#FDFFA3"/>
<circle cx="374.761" cy="3.29681" r="0.637877" fill="#FDFFA3"/>
<circle cx="159.946" cy="134.062" r="0.935459" fill="#FDFFA3"/>
<circle cx="398.014" cy="117.102" r="0.56327" fill="#FDFFA3"/>
<circle cx="329.079" cy="112.128" r="0.575271" fill="#FDFFA3"/>
<circle cx="120.986" cy="201.555" r="0.702922" fill="#FDFFA3"/>
<circle cx="430.942" cy="20.4596" r="0.526981" fill="#FDFFA3"/>
<circle cx="19.6212" cy="186.211" r="0.599251" fill="#FDFFA3"/>
<circle cx="387.828" cy="172.224" r="0.517817" fill="#FDFFA3"/>
<circle cx="421.826" cy="48.0587" r="0.993484" fill="#FDFFA3"/>
<circle cx="40.5204" cy="168.169" r="0.747476" fill="#FDFFA3"/>
<circle cx="49.6012" cy="243.122" r="0.823814" fill="#FDFFA3"/>
<circle cx="122.257" cy="27.6789" r="0.622703" fill="#FDFFA3"/>
<circle cx="368.314" cy="28.6672" r="0.713849" fill="#FDFFA3"/>
<circle cx="241.877" cy="180.836" r="0.944146" fill="#FDFFA3"/>
<circle cx="290.439" cy="60.718" r="0.701687" fill="#FDFFA3"/>
<circle cx="96.0277" cy="167.899" r="0.922234" fill="#FDFFA3"/>
<circle cx="139.638" cy="142.619" r="0.679932" fill="#FDFFA3"/>
<circle cx="338.709" cy="121.032" r="0.575889" fill="#FDFFA3"/>
<circle cx="124.648" cy="234.253" r="0.658281" fill="#FDFFA3"/>
<circle cx="306.971" cy="144.349" r="0.756455" fill="#FDFFA3"/>
<circle cx="351.773" cy="30.1672" r="0.64693" fill="#FDFFA3"/>
<circle cx="115.255" cy="235.37" r="0.662532" fill="#FDFFA3"/>
<circle cx="298.226" cy="153.208" r="0.737251" fill="#FDFFA3"/>
<circle cx="282.721" cy="84.0356" r="0.74609" fill="#FDFFA3"/>
<circle cx="19.5559" cy="226.189" r="0.66825" fill="#FDFFA3"/>
<circle cx="257.363" cy="114.985" r="0.689275" fill="#FDFFA3"/>
<circle cx="232.806" cy="41.1046" r="0.884595" fill="#FDFFA3"/>
<circle cx="377.478" cy="31.2326" r="0.51168" fill="#FDFFA3"/>
<circle cx="69.4216" cy="40.7287" r="0.789724" fill="#FDFFA3"/>
<circle cx="169.591" cy="112.016" r="0.555118" fill="#FDFFA3"/>
<circle cx="353.006" cy="39.3967" r="0.643816" fill="#FDFFA3"/>
<circle cx="209.91" cy="211.901" r="0.515073" fill="#FDFFA3"/>
<circle cx="253.303" cy="116.832" r="0.886434" fill="#FDFFA3"/>
<circle cx="60.7558" cy="85.1166" r="0.738698" fill="#FDFFA3"/>
<circle cx="239.821" cy="38.0089" r="0.673894" fill="#FDFFA3"/>
<circle cx="384.635" cy="138.817" r="0.889161" fill="#FDFFA3"/>
<circle cx="394.342" cy="121.962" r="0.863219" fill="#FDFFA3"/>
<circle cx="34.0652" cy="74.6712" r="0.95196" fill="#FDFFA3"/>
<circle cx="295.885" cy="136.558" r="0.893172" fill="#FDFFA3"/>
<circle cx="187.989" cy="41.9295" r="0.917492" fill="#FDFFA3"/>
<circle cx="390.703" cy="207.245" r="0.89231" fill="#FDFFA3"/>
<circle cx="175.388" cy="157.318" r="0.772426" fill="#FDFFA3"/>
<circle cx="352.42" cy="10.4836" r="0.851064" fill="#FDFFA3"/>
<circle cx="427.569" cy="177.689" r="0.691772" fill="#FDFFA3"/>
<circle cx="248.671" cy="233.257" r="0.561347" fill="#FDFFA3"/>
<circle cx="174.5" cy="202.158" r="0.796108" fill="#FDFFA3"/>
<circle cx="127.412" cy="247.968" r="0.977123" fill="#FDFFA3"/>
<circle cx="211.074" cy="42.8987" r="0.524679" fill="#FDFFA3"/>
<circle cx="191.245" cy="154.135" r="0.877913" fill="#FDFFA3"/>
<circle cx="266.475" cy="118.632" r="0.574885" fill="#FDFFA3"/>
<circle cx="230.727" cy="12.7096" r="0.682021" fill="#FDFFA3"/>
<circle cx="190.829" cy="202.432" r="0.582495" fill="#FDFFA3"/>
<circle cx="89.3167" cy="226.431" r="0.829899" fill="#FDFFA3"/>
<circle cx="263.732" cy="68.8667" r="0.597886" fill="#FDFFA3"/>
<circle cx="326.295" cy="124.168" r="0.591634" fill="#FDFFA3"/>
<circle cx="315.799" cy="30.3026" r="0.785728" fill="#FDFFA3"/>
<circle cx="131.932" cy="87.7389" r="0.926363" fill="#FDFFA3"/>
<circle cx="124.905" cy="196.882" r="0.88434" fill="#FDFFA3"/>
<circle cx="16.2391" cy="176.759" r="0.788443" fill="#FDFFA3"/>
<circle cx="192.045" cy="122.932" r="0.761862" fill="#FDFFA3"/>
<circle cx="369.741" cy="228.128" r="0.69618" fill="#FDFFA3"/>
<circle cx="275.311" cy="169.444" r="0.839216" fill="#FDFFA3"/>
<circle cx="100.13" cy="127.997" r="0.679096" fill="#FDFFA3"/>
<circle cx="358.912" cy="200.55" r="0.854205" fill="#FDFFA3"/>
<circle cx="398.429" cy="39.4019" r="0.63412" fill="#FDFFA3"/>
<circle cx="403.834" cy="162.619" r="0.680308" fill="#FDFFA3"/>
<circle cx="416.162" cy="211.456" r="0.657874" fill="#FDFFA3"/>
<circle cx="226.257" cy="29.4799" r="0.928421" fill="#FDFFA3"/>
<circle cx="403.351" cy="132.275" r="0.70207" fill="#FDFFA3"/>
<circle cx="244.343" cy="103.119" r="0.632042" fill="#FDFFA3"/>
<circle cx="200.512" cy="19.5124" r="0.692789" fill="#FDFFA3"/>
<circle cx="208.658" cy="244.805" r="0.654965" fill="#FDFFA3"/>
<circle cx="211.692" cy="196.36" r="0.580651" fill="#FDFFA3"/>
<circle cx="133.28" cy="154.893" r="0.859518" fill="#FDFFA3"/>
<circle cx="341.881" cy="236.633" r="0.679429" fill="#FDFFA3"/>
<circle cx="317.893" cy="137.388" r="0.585643" fill="#FDFFA3"/>
<circle cx="277.54" cy="204.738" r="0.785275" fill="#FDFFA3"/>
<circle cx="377.23" cy="106.41" r="0.88607" fill="#FDFFA3"/>
<circle cx="44.5103" cy="7.17238" r="0.587423" fill="#FDFFA3"/>
<circle cx="36.5489" cy="157.084" r="0.846221" fill="#FDFFA3"/>
<circle cx="88.0083" cy="157.919" r="0.663545" fill="#FDFFA3"/>
<circle cx="247.157" cy="151.288" r="0.5502" fill="#FDFFA3"/>
<circle cx="14.8879" cy="22.8274" r="0.75851" fill="#FDFFA3"/>
<circle cx="197.856" cy="136.458" r="0.543516" fill="#FDFFA3"/>
<circle cx="321.279" cy="109.59" r="0.901939" fill="#FDFFA3"/>
<circle cx="207.181" cy="37.7732" r="0.805888" fill="#FDFFA3"/>
<circle cx="182.122" cy="46.3486" r="0.844248" fill="#FDFFA3"/>
<circle cx="346.321" cy="122.542" r="0.64118" fill="#FDFFA3"/>
<circle cx="168.613" cy="17.9752" r="0.678607" fill="#FDFFA3"/>
<circle cx="22.1233" cy="91.4546" r="0.962694" fill="#FDFFA3"/>
<circle cx="247.174" cy="216.751" r="0.75995" fill="#FDFFA3"/>
<circle cx="332.58" cy="166.173" r="0.888077" fill="#FDFFA3"/>
<circle cx="355.631" cy="122.726" r="0.724278" fill="#FDFFA3"/>
<circle cx="46.8255" cy="72.702" r="0.785461" fill="#FDFFA3"/>
<circle cx="199.434" cy="170.796" r="0.597164" fill="#FDFFA3"/>
<circle cx="247.857" cy="46.8198" r="0.651308" fill="#FDFFA3"/>
<circle cx="219.26" cy="246.824" r="0.630781" fill="#FDFFA3"/>
<circle cx="381.973" cy="208.489" r="0.632862" fill="#FDFFA3"/>
<circle cx="367.964" cy="220.819" r="0.873425" fill="#FDFFA3"/>
<circle cx="285.444" cy="111.106" r="0.775258" fill="#FDFFA3"/>
<circle cx="43.9349" cy="241.644" r="0.632612" fill="#FDFFA3"/>
<circle cx="336.051" cy="85.5702" r="0.963734" fill="#FDFFA3"/>
<circle cx="343.447" cy="204.487" r="0.542187" fill="#FDFFA3"/>
<circle cx="424.41" cy="237.979" r="0.887822" fill="#FDFFA3"/>
<circle cx="356.658" cy="196.341" r="0.613236" fill="#FDFFA3"/>
<circle cx="290.102" cy="204.162" r="0.679131" fill="#FDFFA3"/>
<circle cx="71.7695" cy="247.303" r="0.724612" fill="#FDFFA3"/>
<circle cx="258.09" cy="6.22513" r="0.938754" fill="#FDFFA3"/>
<circle cx="40.2705" cy="229.065" r="0.685994" fill="#FDFFA3"/>
<circle cx="39.3057" cy="186.192" r="0.749098" fill="#FDFFA3"/>
<circle cx="38.9639" cy="152.048" r="0.666088" fill="#FDFFA3"/>
<circle cx="245.556" cy="123.32" r="0.894894" fill="#FDFFA3"/>
<circle cx="155.396" cy="102.698" r="0.608702" fill="#FDFFA3"/>
<circle cx="44.5906" cy="12.7205" r="0.957765" fill="#FDFFA3"/>
<circle cx="204.076" cy="120.035" r="0.622183" fill="#FDFFA3"/>
<circle cx="98.1422" cy="16.4342" r="0.6974" fill="#FDFFA3"/>
<circle cx="306.208" cy="5.29268" r="0.633007" fill="#FDFFA3"/>
<circle cx="302.956" cy="69.3519" r="0.834027" fill="#FDFFA3"/>
<circle cx="421.174" cy="242.051" r="0.921608" fill="#FDFFA3"/>
<circle cx="241.19" cy="231.584" r="0.719463" fill="#FDFFA3"/>
<circle cx="363.34" cy="58.5588" r="0.811479" fill="#FDFFA3"/>
<circle cx="187.467" cy="218.632" r="0.634533" fill="#FDFFA3"/>
<circle cx="308.957" cy="169.552" r="0.922534" fill="#FDFFA3"/>
<circle cx="368.436" cy="224.613" r="0.558145" fill="#FDFFA3"/>
<circle cx="366.475" cy="221.316" r="0.613544" fill="#FDFFA3"/>
<circle cx="334.524" cy="166.077" r="0.782006" fill="#FDFFA3"/>
<circle cx="313.494" cy="107.586" r="0.701439" fill="#FDFFA3"/>
<circle cx="144.474" cy="160.766" r="0.939166" fill="#FDFFA3"/>
<circle cx="154.492" cy="37.259" r="0.995326" fill="#FDFFA3"/>
<circle cx="357.674" cy="131.041" r="0.899045" fill="#FDFFA3"/>
<circle cx="169.491" cy="128.28" r="0.955943" fill="#FDFFA3"/>
<circle cx="78.1754" cy="102.857" r="0.904393" fill="#FDFFA3"/>
<circle cx="163.325" cy="176.99" r="0.646117" fill="#FDFFA3"/>
<circle cx="178.36" cy="229.798" r="0.847067" fill="#FDFFA3"/>
<circle cx="167.968" cy="220.505" r="0.819758" fill="#FDFFA3"/>
<circle cx="245.748" cy="213.478" r="0.87947" fill="#FDFFA3"/>
<circle cx="198.837" cy="143.705" r="0.524007" fill="#FDFFA3"/>
<circle cx="75.3024" cy="109.101" r="0.518198" fill="#FDFFA3"/>
<circle cx="70.7453" cy="188.486" r="0.905921" fill="#FDFFA3"/>
<circle cx="346.192" cy="86.8332" r="0.513609" fill="#FDFFA3"/>
<circle cx="284.195" cy="29.9254" r="0.862697" fill="#FDFFA3"/>
<circle cx="282.5" cy="194.864" r="0.625188" fill="#FDFFA3"/>
<circle cx="19.8134" cy="119.72" r="0.5575" fill="#FDFFA3"/>
<circle cx="384.646" cy="117.734" r="0.908391" fill="#FDFFA3"/>
<circle cx="156.084" cy="230.228" r="0.540915" fill="#FDFFA3"/>
<circle cx="409.222" cy="194.45" r="0.661423" fill="#FDFFA3"/>
<circle cx="325.759" cy="160.648" r="0.981014" fill="#FDFFA3"/>
<circle cx="273.462" cy="134.681" r="0.562205" fill="#FDFFA3"/>
<circle cx="96.0624" cy="73.7501" r="0.555529" fill="#FDFFA3"/>
<circle cx="327.91" cy="131.926" r="0.751389" fill="#FDFFA3"/>
<circle cx="269.13" cy="233.444" r="0.795086" fill="#FDFFA3"/>
<circle cx="370.945" cy="140.947" r="0.765233" fill="#FDFFA3"/>
<circle cx="318.673" cy="136.885" r="0.644776" fill="#FDFFA3"/>
<circle cx="81.0234" cy="49.6491" r="0.801202" fill="#FDFFA3"/>
<circle cx="278.205" cy="238.605" r="0.834738" fill="#FDFFA3"/>
<circle cx="359.951" cy="97.484" r="0.760602" fill="#FDFFA3"/>
<circle cx="387.764" cy="166.698" r="0.733996" fill="#FDFFA3"/>
</g>
<g clip-path="url(#clip2_368_18)">
<g filter="url(#filter0_f_368_18)">
<ellipse cx="8.69817" cy="-26.7067" rx="197.1" ry="59.13" transform="rotate(-114.544 8.69817 -26.7067)" fill="#0000FF" fill-opacity="0.25"/>
</g>
<g filter="url(#filter1_f_368_18)">
<ellipse cx="421.122" cy="319.532" rx="197.1" ry="59.13" transform="rotate(44.3587 421.122 319.532)" fill="#0000FF" fill-opacity="0.25"/>
</g>
<g filter="url(#filter2_f_368_18)">
<ellipse cx="101.644" cy="383.998" rx="197.1" ry="59.13" transform="rotate(122.244 101.644 383.998)" fill="#0000FF" fill-opacity="0.25"/>
</g>
<g filter="url(#filter3_f_368_18)">
<ellipse cx="250.547" cy="139.653" rx="197.1" ry="59.13" transform="rotate(138.508 250.547 139.653)" fill="#0000FF" fill-opacity="0.25"/>
</g>
<g filter="url(#filter4_f_368_18)">
<ellipse cx="549.953" cy="167.796" rx="197.1" ry="59.13" transform="rotate(17.7861 549.953 167.796)" fill="#0000FF" fill-opacity="0.25"/>
</g>
</g>
</g>
<defs>
<filter id="filter0_f_368_18" x="-239.274" y="-357.694" width="495.944" height="661.974" filterUnits="userSpaceOnUse" color-interpolation-filters="sRGB">
<feFlood flood-opacity="0" result="BackgroundImageFix"/>
<feBlend mode="normal" in="SourceGraphic" in2="BackgroundImageFix" result="shape"/>
<feGaussianBlur stdDeviation="75" result="effect1_foregroundBlur_368_18"/>
</filter>
<filter id="filter1_f_368_18" x="124.224" y="25.3521" width="593.797" height="588.359" filterUnits="userSpaceOnUse" color-interpolation-filters="sRGB">
<feFlood flood-opacity="0" result="BackgroundImageFix"/>
<feBlend mode="normal" in="SourceGraphic" in2="BackgroundImageFix" result="shape"/>
<feGaussianBlur stdDeviation="75" result="effect1_foregroundBlur_368_18"/>
</filter>
<filter id="filter2_f_368_18" x="-164.829" y="64.3047" width="532.945" height="639.386" filterUnits="userSpaceOnUse" color-interpolation-filters="sRGB">
<feFlood flood-opacity="0" result="BackgroundImageFix"/>
<feBlend mode="normal" in="SourceGraphic" in2="BackgroundImageFix" result="shape"/>
<feGaussianBlur stdDeviation="75" result="effect1_foregroundBlur_368_18"/>
</filter>
<filter id="filter3_f_368_18" x="-52.2368" y="-148.273" width="605.568" height="575.852" filterUnits="userSpaceOnUse" color-interpolation-filters="sRGB">
<feFlood flood-opacity="0" result="BackgroundImageFix"/>
<feBlend mode="normal" in="SourceGraphic" in2="BackgroundImageFix" result="shape"/>
<feGaussianBlur stdDeviation="75" result="effect1_foregroundBlur_368_18"/>
</filter>
<filter id="filter4_f_368_18" x="211.393" y="-64.6362" width="677.119" height="464.864" filterUnits="userSpaceOnUse" color-interpolation-filters="sRGB">
<feFlood flood-opacity="0" result="BackgroundImageFix"/>
<feBlend mode="normal" in="SourceGraphic" in2="BackgroundImageFix" result="shape"/>
<feGaussianBlur stdDeviation="75" result="effect1_foregroundBlur_368_18"/>
</filter>
<clipPath id="clip0_368_18">
<rect width="438" height="250" fill="white"/>
</clipPath>
<clipPath id="clip1_368_18">
<rect width="438" height="250" fill="white"/>
</clipPath>
<clipPath id="clip2_368_18">
<rect width="438" height="250" fill="white"/>
</clipPath>
</defs>
</svg>
