<svg width="133" height="19" viewBox="0 0 133 19" fill="none" xmlns="http://www.w3.org/2000/svg">
<path d="M9.5 1.30198L11.5511 6.23347L11.6684 6.51545L11.9728 6.53985L17.2968 6.96667L13.2405 10.4413L13.0086 10.64L13.0794 10.9371L14.3187 16.1323L9.76063 13.3483L9.5 13.1891L9.23937 13.3483L4.68132 16.1323L5.92059 10.9371L5.99145 10.64L5.75951 10.4413L1.70322 6.96667L7.02717 6.53985L7.3316 6.51545L7.44888 6.23347L9.5 1.30198Z" fill="#3B77DD" stroke="#3A77DE"/>
<path d="M38.5 0L41.0128 6.04145L47.535 6.56434L42.5658 10.821L44.084 17.1857L38.5 13.775L32.916 17.1857L34.4342 10.821L29.465 6.56434L35.9872 6.04145L38.5 0Z" fill="#3B77DD"/>
<path d="M38.5 1.30198L40.5511 6.23347L40.6684 6.51545L40.9728 6.53985L46.2968 6.96667L42.2405 10.4413L42.0086 10.64L42.0794 10.9371L43.3187 16.1323L38.7606 13.3483L38.5 13.1891L38.2394 13.3483L33.6813 16.1323L34.9206 10.9371L34.9914 10.64L34.7595 10.4413L30.7032 6.96667L36.0272 6.53985L36.3316 6.51545L36.4489 6.23347L38.5 1.30198Z" stroke="#3A77DE" stroke-opacity="0.933333"/>
<path d="M66.5 0L69.0128 6.04145L75.535 6.56434L70.5658 10.821L72.084 17.1857L66.5 13.775L60.916 17.1857L62.4342 10.821L57.465 6.56434L63.9872 6.04145L66.5 0Z" fill="#3B77DD"/>
<path d="M66.5 1.30198L68.5511 6.23347L68.6684 6.51545L68.9728 6.53985L74.2968 6.96667L70.2405 10.4413L70.0086 10.64L70.0794 10.9371L71.3187 16.1323L66.7606 13.3483L66.5 13.1891L66.2394 13.3483L61.6813 16.1323L62.9206 10.9371L62.9914 10.64L62.7595 10.4413L58.7032 6.96667L64.0272 6.53985L64.3316 6.51545L64.4489 6.23347L66.5 1.30198Z" stroke="#3A77DE" stroke-opacity="0.933333"/>
<path d="M95.5 0L98.0128 6.04145L104.535 6.56434L99.5658 10.821L101.084 17.1857L95.5 13.775L89.916 17.1857L91.4342 10.821L86.465 6.56434L92.9872 6.04145L95.5 0Z" fill="#3B77DD"/>
<path d="M95.5 1.30198L97.5511 6.23347L97.6684 6.51545L97.9728 6.53985L103.297 6.96667L99.2405 10.4413L99.0086 10.64L99.0794 10.9371L100.319 16.1323L95.7606 13.3483L95.5 13.1891L95.2394 13.3483L90.6813 16.1323L91.9206 10.9371L91.9914 10.64L91.7595 10.4413L87.7032 6.96667L93.0272 6.53985L93.3316 6.51545L93.4489 6.23347L95.5 1.30198Z" stroke="#3A77DE" stroke-opacity="0.933333"/>
<path d="M123.5 0L126.013 6.04145L132.535 6.56434L127.566 10.821L129.084 17.1857L123.5 13.775L117.916 17.1857L119.434 10.821L114.465 6.56434L120.987 6.04145L123.5 0Z" fill="#3B77DD"/>
<path d="M123.5 1.30198L125.551 6.23347L125.668 6.51545L125.973 6.53985L131.297 6.96667L127.24 10.4413L127.009 10.64L127.079 10.9371L128.319 16.1323L123.761 13.3483L123.5 13.1891L123.239 13.3483L118.681 16.1323L119.921 10.9371L119.991 10.64L119.76 10.4413L115.703 6.96667L121.027 6.53985L121.332 6.51545L121.449 6.23347L123.5 1.30198Z" stroke="#3A77DE" stroke-opacity="0.933333"/>
</svg>
